<?xml version="1.0" standalone="no"?>
<!DOCTYPE svg PUBLIC "-//W3C//DTD SVG 20010904//EN"
 "http://www.w3.org/TR/2001/REC-SVG-20010904/DTD/svg10.dtd">
<svg version="1.0" xmlns="http://www.w3.org/2000/svg"
 width="326.000000pt" height="326.000000pt" viewBox="0 0 326.000000 326.000000"
 preserveAspectRatio="xMidYMid meet">
<metadata>
Created by potrace 1.14, written by Peter Selinger 2001-2017
</metadata>
<g transform="translate(0.000000,326.000000) scale(0.100000,-0.100000)"
fill="#000000" stroke="none">
<path d="M130 1659 c0 -1404 2 -1600 15 -1596 8 4 17 2 20 -3 4 -6 11 -10 16
-10 6 0 7 6 3 13 -6 9 -5 9 8 0 8 -7 18 -10 21 -6 9 8 57 11 57 3 0 -3 9 -6
20 -7 12 -1 18 3 14 9 -4 6 1 6 14 -1 27 -14 35 -14 26 1 -6 10 -5 10 8 1 8
-7 18 -10 21 -6 9 8 57 11 57 3 0 -3 9 -6 20 -7 13 -1 18 2 13 10 -5 9 -2 8 9
0 8 -7 18 -10 21 -6 9 8 57 11 57 3 0 -3 9 -6 20 -7 13 -1 18 2 13 10 -4 8 -1
8 9 -1 9 -7 19 -9 22 -4 6 11 36 9 56 -3 9 -5 15 -4 18 3 4 13 32 5 32 -10 0
-5 -4 -7 -9 -3 -11 6 -36 -33 -27 -43 3 -3 6 0 6 7 0 7 4 9 10 6 6 -4 7 1 3
11 -4 12 -3 15 5 10 8 -4 15 2 21 15 l8 23 12 -22 c7 -12 16 -20 20 -17 5 3
12 -2 15 -11 3 -8 10 -13 15 -10 5 4 12 1 14 -4 4 -7 5 -6 4 0 -2 7 -7 11 -12
11 -6 0 -14 7 -18 15 -5 8 -12 12 -18 9 -5 -4 -9 -2 -9 3 0 16 13 22 27 11 10
-9 13 -8 14 2 0 8 4 4 9 -7 9 -23 54 -28 56 -6 3 25 5 27 13 13 8 -12 12 -12
25 -2 12 10 16 9 25 -7 11 -21 55 -25 57 -4 3 25 5 27 13 13 8 -12 12 -12 25
-2 12 10 16 9 25 -7 14 -27 57 -24 53 3 -3 16 -1 18 9 8 14 -14 33 -18 26 -5
-6 9 82 6 107 -4 13 -5 17 -4 13 3 -4 6 1 10 11 9 9 0 20 -8 24 -17 7 -19 52
-20 54 -1 3 25 5 27 13 13 8 -12 12 -12 25 -2 12 10 16 9 25 -7 11 -21 55 -25
57 -4 3 25 5 27 13 13 7 -11 13 -12 23 -3 9 7 19 8 28 2 18 -12 33 -13 27 -2
-3 4 10 7 29 7 36 0 48 -20 14 -22 -13 -1 -18 2 -14 9 4 7 2 8 -5 4 -6 -4 -9
-12 -6 -17 9 -13 40 -6 60 15 14 13 20 15 26 5 6 -10 11 -10 24 1 15 12 16 12
13 -5 -2 -15 3 -20 20 -21 13 -1 26 5 29 13 4 10 14 12 30 8 14 -3 22 -2 20 2
-3 4 21 8 53 8 32 0 56 -3 54 -7 -2 -4 5 -9 16 -13 11 -4 18 -10 16 -14 -3 -4
0 -13 5 -21 7 -11 8 -9 6 8 -2 13 -9 27 -16 31 -10 6 -9 10 3 14 9 4 16 3 16
-1 0 -4 9 -8 20 -9 12 -1 18 3 14 9 -4 6 1 6 14 -1 27 -14 35 -14 26 1 -6 10
-5 10 8 1 8 -7 18 -10 21 -6 9 8 57 11 57 3 0 -3 9 -6 20 -7 13 -1 18 2 13 10
-5 9 -2 8 9 0 8 -7 18 -10 21 -6 9 8 57 11 57 3 0 -3 9 -6 20 -7 13 -1 18 2
13 10 -5 9 -2 8 9 0 8 -7 18 -10 21 -6 9 8 57 11 57 3 0 -3 9 -6 20 -7 13 -1
18 2 13 10 -5 9 -2 8 9 0 8 -7 18 -10 22 -6 21 21 91 -7 78 -31 -3 -5 1 -6 8
-1 10 6 10 11 -4 20 -14 11 -15 13 -1 19 8 3 15 2 15 -2 0 -4 9 -8 20 -9 12
-1 18 3 14 9 -4 6 1 6 14 -1 27 -14 35 -14 26 2 -6 9 -5 9 8 0 8 -7 18 -10 21
-6 9 8 57 11 57 3 0 -3 9 -6 20 -7 13 -1 18 2 13 10 -5 9 -2 8 9 0 8 -7 18
-10 21 -6 9 8 57 11 57 3 0 -3 9 -6 20 -7 13 -1 18 2 13 10 -5 9 -2 8 9 0 8
-7 18 -10 21 -6 9 8 57 11 57 3 0 -3 9 -6 20 -7 13 -1 18 2 13 10 -5 9 -2 8 9
0 8 -7 18 -10 22 -6 21 21 91 -7 78 -31 -3 -5 1 -6 8 -1 10 6 10 11 -4 20 -14
11 -15 13 -1 19 8 3 15 2 15 -2 0 -4 9 -8 20 -9 11 -1 18 2 15 7 -3 6 1 7 9 4
14 -6 16 152 16 1595 l0 1601 -1500 0 -1500 0 0 -1601z m720 -1603 c9 -12 8
-15 -9 -13 -21 1 -26 8 -14 20 9 9 9 9 23 -7z m120 0 c9 -12 8 -15 -9 -13 -21
1 -26 8 -14 20 9 9 9 9 23 -7z m120 0 c9 -12 8 -15 -9 -13 -21 1 -26 8 -14 20
9 9 9 9 23 -7z m240 0 c9 -12 8 -15 -9 -13 -21 1 -26 8 -14 20 9 9 9 9 23 -7z
m120 0 c9 -12 8 -15 -9 -13 -21 1 -26 8 -14 20 9 9 9 9 23 -7z m290 1 c0 -7
-10 -13 -22 -14 -22 -2 -22 -1 -4 13 24 17 26 17 26 1z"/>
<path d="M1172 51 c5 -16 44 -25 53 -12 3 5 0 13 -6 17 -8 5 -9 3 -5 -5 10
-15 -25 -11 -37 4 -5 6 -7 4 -5 -4z"/>
<path d="M1815 51 c-3 -5 -2 -12 3 -15 15 -9 46 0 50 15 2 8 0 10 -5 4 -11
-14 -47 -19 -38 -6 3 6 4 11 1 11 -3 0 -7 -4 -11 -9z"/>
<path d="M152 36 c7 -8 15 -12 17 -11 5 6 -10 25 -20 25 -5 0 -4 -6 3 -14z"/>
<path d="M216 41 c-4 -5 -1 -13 5 -17 8 -4 9 -3 5 4 -5 8 1 12 14 12 12 0 19
-4 16 -8 -2 -4 0 -14 5 -22 7 -11 8 -8 6 10 -4 26 -39 41 -51 21z"/>
<path d="M379 48 c-4 -15 -6 -50 -3 -40 3 6 11 9 17 5 7 -4 6 1 -2 10 -12 15
-11 17 8 17 14 0 20 -4 15 -12 -4 -7 -3 -8 5 -4 16 10 4 26 -20 26 -10 0 -19
-1 -20 -2z"/>
<path d="M499 43 c-1 -4 -1 -11 0 -15 2 -13 -17 -9 -22 5 -4 9 -6 9 -6 0 -1
-7 8 -17 18 -23 17 -9 19 -7 16 10 -3 14 2 20 16 20 10 0 18 -6 17 -12 -2 -7
3 -13 11 -13 8 0 15 6 17 13 1 7 0 8 -3 2 -7 -14 -24 -13 -20 2 1 7 -8 14 -20
16 -13 2 -24 0 -24 -5z"/>
<path d="M619 47 c0 -1 -2 -13 -5 -27 -3 -18 -2 -21 5 -10 5 8 8 17 5 21 -2 4
5 7 16 6 12 -1 18 -7 16 -14 -3 -7 -1 -15 3 -17 5 -3 8 4 7 16 -1 14 -9 22
-23 24 -13 2 -23 3 -24 1z"/>
<path d="M910 45 c0 -5 5 -17 10 -25 5 -8 10 -10 10 -5 0 6 -5 17 -10 25 -5 8
-10 11 -10 5z"/>
<path d="M1033 32 c2 -12 6 -24 10 -28 3 -4 4 4 2 16 -6 30 -16 40 -12 12z"/>
<path d="M1150 43 c0 -6 8 -17 18 -24 16 -13 16 -13 2 6 -8 11 -16 22 -17 24
-2 2 -3 0 -3 -6z"/>
<path d="M1273 32 c2 -12 6 -24 10 -28 3 -4 4 4 2 16 -6 30 -16 40 -12 12z"/>
<path d="M1390 43 c0 -6 8 -17 18 -24 16 -13 16 -13 2 6 -8 11 -16 22 -17 24
-2 2 -3 0 -3 -6z"/>
<path d="M1510 40 c0 -5 5 -10 10 -10 6 0 10 5 10 10 0 6 -4 10 -10 10 -5 0
-10 -4 -10 -10z"/>
<path d="M1631 27 c-13 -21 -12 -21 5 -5 10 10 16 20 13 22 -3 3 -11 -5 -18
-17z"/>
<path d="M1759 43 c0 -5 -2 -16 -4 -26 -2 -11 -1 -16 3 -13 8 8 14 46 7 46 -3
0 -5 -3 -6 -7z"/>
<path d="M1876 35 c-3 -9 -6 -22 -5 -28 0 -7 5 -1 10 12 5 13 8 26 5 28 -2 2
-6 -3 -10 -12z"/>
<path d="M2059 48 c-5 -20 -6 -50 -2 -40 4 10 8 10 21 0 12 -9 11 -6 -2 10
-19 22 -19 22 3 22 12 0 20 -4 16 -9 -3 -5 -1 -12 4 -15 5 -4 8 2 7 11 -2 15
-44 33 -47 21z"/>
<path d="M2179 43 c-1 -4 -1 -11 0 -15 2 -13 -17 -9 -22 5 -4 9 -6 9 -6 0 -1
-7 8 -17 18 -23 17 -9 19 -7 16 10 -3 14 2 20 16 20 10 0 18 -6 17 -12 -2 -7
3 -13 11 -13 8 0 15 6 17 13 1 7 0 8 -3 2 -7 -14 -24 -13 -20 2 1 7 -8 14 -20
16 -13 2 -24 0 -24 -5z"/>
<path d="M2299 48 c-6 -26 -6 -37 2 -32 5 3 7 10 4 15 -4 5 3 9 15 9 12 0 19
-4 16 -8 -2 -4 0 -14 5 -22 7 -11 8 -8 6 10 -3 17 -11 26 -25 28 -12 2 -22 2
-23 0z"/>
<path d="M2419 43 c-1 -5 -1 -11 0 -15 2 -13 -17 -9 -21 4 -3 8 -6 7 -10 -4
-5 -11 0 -15 15 -14 12 1 21 7 20 14 -2 7 6 12 16 12 14 0 18 -6 15 -22 -4
-21 -4 -21 5 -3 11 25 5 35 -20 35 -10 0 -20 -3 -20 -7z"/>
<path d="M2619 48 c-5 -20 -6 -50 -2 -40 4 10 8 10 21 0 12 -9 11 -6 -2 10
-19 22 -19 22 3 22 12 0 20 -4 16 -9 -3 -5 -1 -12 4 -15 5 -4 8 2 7 11 -2 15
-44 33 -47 21z"/>
<path d="M2739 43 c-1 -4 -1 -11 0 -15 2 -13 -17 -9 -22 5 -4 9 -6 9 -6 0 -1
-7 8 -17 18 -23 17 -9 19 -7 16 10 -3 14 2 20 16 20 10 0 18 -6 17 -12 -2 -7
3 -13 11 -13 8 0 15 6 17 13 1 7 0 8 -3 2 -7 -14 -24 -13 -20 2 1 7 -8 14 -20
16 -13 2 -24 0 -24 -5z"/>
<path d="M2859 48 c-6 -26 -6 -37 2 -32 5 3 7 10 4 15 -4 5 3 9 15 9 12 0 19
-4 16 -8 -2 -4 0 -14 5 -22 7 -11 8 -8 6 10 -3 17 -11 26 -25 28 -12 2 -22 2
-23 0z"/>
<path d="M2979 43 c-1 -5 -1 -11 0 -15 2 -13 -17 -9 -21 4 -3 8 -6 7 -10 -4
-5 -11 0 -15 15 -14 12 1 21 7 20 14 -2 7 6 12 16 12 14 0 18 -6 15 -22 -4
-21 -4 -21 5 -3 11 25 5 35 -20 35 -10 0 -20 -3 -20 -7z"/>
<path d="M190 25 c0 -8 4 -15 10 -15 5 0 7 7 4 15 -4 8 -8 15 -10 15 -2 0 -4
-7 -4 -15z"/>
<path d="M307 27 c-3 -7 3 -13 13 -13 10 0 16 6 13 13 -3 7 -9 13 -13 13 -4 0
-10 -6 -13 -13z"/>
<path d="M436 25 c-3 -8 -1 -15 4 -15 6 0 10 7 10 15 0 8 -2 15 -4 15 -2 0 -6
-7 -10 -15z"/>
<path d="M591 24 c0 -11 3 -14 6 -6 3 7 2 16 -1 19 -3 4 -6 -2 -5 -13z"/>
<path d="M1987 27 c-3 -7 3 -13 13 -13 10 0 16 6 13 13 -7 17 -19 17 -26 0z"/>
<path d="M2121 24 c0 -11 3 -14 6 -6 3 7 2 16 -1 19 -3 4 -6 -2 -5 -13z"/>
<path d="M2271 24 c0 -11 3 -14 6 -6 3 7 2 16 -1 19 -3 4 -6 -2 -5 -13z"/>
<path d="M2361 24 c0 -11 3 -14 6 -6 3 7 2 16 -1 19 -3 4 -6 -2 -5 -13z"/>
<path d="M2516 25 c-3 -8 -1 -15 4 -15 6 0 10 7 10 15 0 8 -2 15 -4 15 -2 0
-6 -7 -10 -15z"/>
<path d="M2550 31 c0 -5 7 -11 14 -14 10 -4 13 -1 9 9 -6 15 -23 19 -23 5z"/>
<path d="M2681 24 c0 -11 3 -14 6 -6 3 7 2 16 -1 19 -3 4 -6 -2 -5 -13z"/>
<path d="M2831 24 c0 -11 3 -14 6 -6 3 7 2 16 -1 19 -3 4 -6 -2 -5 -13z"/>
<path d="M2921 24 c0 -11 3 -14 6 -6 3 7 2 16 -1 19 -3 4 -6 -2 -5 -13z"/>
<path d="M3076 25 c-3 -8 -1 -15 4 -15 6 0 10 7 10 15 0 8 -2 15 -4 15 -2 0
-6 -7 -10 -15z"/>
<path d="M3110 29 c0 -5 5 -7 10 -4 6 3 10 8 10 11 0 2 -4 4 -10 4 -5 0 -10
-5 -10 -11z"/>
<path d="M130 19 c0 -5 5 -7 10 -4 6 3 10 8 10 11 0 2 -4 4 -10 4 -5 0 -10 -5
-10 -11z"/>
<path d="M725 20 c-3 -6 1 -7 9 -4 18 7 21 14 7 14 -6 0 -13 -4 -16 -10z"/>
<path d="M860 20 c-18 -12 -2 -12 25 0 13 6 15 9 5 9 -8 0 -22 -4 -30 -9z"/>
<path d="M990 20 c0 -5 7 -7 15 -4 8 4 15 8 15 10 0 2 -7 4 -15 4 -8 0 -15 -4
-15 -10z"/>
<path d="M1100 20 c-11 -8 -7 -9 14 -4 22 5 27 4 21 -6 -5 -9 -4 -11 4 -6 13
9 5 26 -12 26 -7 0 -19 -5 -27 -10z"/>
<path d="M1230 22 c0 -5 7 -9 15 -9 8 0 15 4 15 9 0 4 -7 8 -15 8 -8 0 -15 -4
-15 -8z"/>
<path d="M1347 23 c-3 -5 5 -8 18 -8 13 0 21 3 18 7 -6 10 -30 10 -36 1z"/>
<path d="M1470 22 c0 -5 7 -9 15 -9 8 0 15 4 15 9 0 4 -7 8 -15 8 -8 0 -15 -4
-15 -8z"/>
<path d="M1540 22 c0 -5 7 -9 15 -9 8 0 15 4 15 9 0 4 -7 8 -15 8 -8 0 -15 -4
-15 -8z"/>
<path d="M1655 21 c-3 -5 0 -13 6 -17 8 -5 9 -3 4 6 -6 10 -1 11 21 6 21 -5
25 -4 14 4 -19 12 -37 13 -45 1z"/>
<path d="M1780 26 c0 -2 7 -6 15 -10 8 -3 15 -1 15 4 0 6 -7 10 -15 10 -8 0
-15 -2 -15 -4z"/>
<path d="M1896 14 c-5 -14 -4 -15 9 -4 17 14 19 20 6 20 -5 0 -12 -7 -15 -16z"/>
<path d="M950 10 c0 -6 7 -10 15 -10 8 0 15 2 15 4 0 2 -7 6 -15 10 -8 3 -15
1 -15 -4z"/>
<path d="M1308 13 c7 -3 16 -2 19 1 4 3 -2 6 -13 5 -11 0 -14 -3 -6 -6z"/>
<path d="M1590 10 c-13 -8 -12 -10 3 -10 9 0 17 5 17 10 0 12 -1 12 -20 0z"/>
<path d="M1830 10 c-9 -6 -10 -10 -3 -10 6 0 15 5 18 10 8 12 4 12 -15 0z"/>
</g>
</svg>
